HIERARCHY
ROOT Hips
{
  OFFSET 179.979 97.3047 303.174
  CHANNELS 6 Xposition Yposition Zposition Zrotation Xrotation Yrotation
  JOINT Spine
  {
    OFFSET 0.000859786 9.92346 -1.22733
    CHANNELS 3 Zrotation Xrotation Yrotation
    JOINT Spine1
    {
      OFFSET 0 11.732 0
      CHANNELS 3 Zrotation Xrotation Yrotation
      JOINT Spine2
      {
        OFFSET 0 13.4588 0
        CHANNELS 3 Zrotation Xrotation Yrotation
        JOINT Neck
        {
          OFFSET 2.54812e-05 15.0278 0.877907
          CHANNELS 3 Zrotation Xrotation Yrotation
          JOINT Head
          {
            OFFSET 0 10.3218 3.14243
            CHANNELS 3 Zrotation Xrotation Yrotation
            End Site
            {
              OFFSET 0 0 0
            }
          }
        }
        JOINT LeftShoulder
        {
          OFFSET 6.10582 9.10629 0.757062
          CHANNELS 3 Zrotation Xrotation Yrotation
          JOINT LeftArm
          {
            OFFSET 0 12.9223 0
            CHANNELS 3 Zrotation Xrotation Yrotation
            JOINT LeftForeArm
            {
              OFFSET 0 27.4047 0
              CHANNELS 3 Zrotation Xrotation Yrotation
              JOINT LeftHand
              {
                OFFSET -1.28204e-05 27.6145 0
                CHANNELS 3 Zrotation Xrotation Yrotation
                End Site
                {
                  OFFSET 0 0 0
                }
              }
            }
          }
        }
        JOINT RightShoulder
        {
          OFFSET -6.1057 9.10638 0.757076
          CHANNELS 3 Zrotation Xrotation Yrotation
          JOINT RightArm
          {
            OFFSET 0 12.9223 0
            CHANNELS 3 Zrotation Xrotation Yrotation
            JOINT RightForeArm
            {
              OFFSET 0 27.4047 0
              CHANNELS 3 Zrotation Xrotation Yrotation
              JOINT RightHand
              {
                OFFSET 1.28428e-05 27.6145 1.44975e-05
                CHANNELS 3 Zrotation Xrotation Yrotation
                End Site
                {
                  OFFSET 0 0 0
                }
              }
            }
          }
        }
      }
    }
  }
  JOINT LeftUpLeg
  {
    OFFSET 9.12387 -6.65719 -0.0554031
    CHANNELS 3 Zrotation Xrotation Yrotation
    JOINT LeftLeg
    {
      OFFSET 0 40.5994 0
      CHANNELS 3 Zrotation Xrotation Yrotation
      JOINT LeftFoot
      {
        OFFSET 0 42.099 0
        CHANNELS 3 Zrotation Xrotation Yrotation
        JOINT LeftToeBase
        {
          OFFSET 0 15.7216 0
          CHANNELS 3 Zrotation Xrotation Yrotation
          End Site
          {
            OFFSET 0 0 0
          }
        }
      }
    }
  }
  JOINT RightUpLeg
  {
    OFFSET -9.12503 -6.6556 -0.0553527
    CHANNELS 3 Zrotation Xrotation Yrotation
    JOINT RightLeg
    {
      OFFSET 0 40.5994 0
      CHANNELS 3 Zrotation Xrotation Yrotation
      JOINT RightFoot
      {
        OFFSET 0 42.099 0
        CHANNELS 3 Zrotation Xrotation Yrotation
        JOINT RightToeBase
        {
          OFFSET 0 15.7216 0
          CHANNELS 3 Zrotation Xrotation Yrotation
          End Site
          {
            OFFSET 0 0 0
          }
        }
      }
    }
  }
}
MOTION
Frames:	8
Frame Time:	0.0333333
287.49 21.0308 52.9741 3.16241 54.8289 174.554 1.21936 5.80526 1.8523 2.1673 25.5862 3.23561 1.72806 32.1694 3.44954 9.78051 17.5039 -5.38088 2.33366 -28.5137 -0.705763 -104.592 -10.0374 91.4098 -16.7097 57.1157 58.6304 9.92321 -12.502 -0.560828 -16.3235 -48.9666 -20.8869 93.2608 5.65973 -92.8069 53.1984 70.4179 -73.8658 -25.5163 -14.1574 0.796948 63.4868 -37.9096 61.327 -49.6995 81.2365 -109.644 176.378 -35.2988 172.669 13.2328 67.7216 -9.52569 -0.965277 26.367 -3.60229 75.5525 74.7199 107.388 -172.343 -54.5446 -167.253 -12.0972 57.9914 7.23949 0.963543 26.3682 3.55537 
286.939 20.2514 55.188 0.709243 55.1265 177.77 0.941201 5.68853 1.9819 1.53939 25.3484 3.64666 1.04572 31.9287 3.88487 7.52511 16.595 -5.42438 3.54469 -27.7565 -1.94066 -103.424 -10.3198 91.2938 -17.4238 58.0993 53.6361 12.6153 -13.6074 -0.62734 -11.9186 -56.2571 -19.6436 92.2715 6.0345 -92.6669 53.9303 71.2379 -75.7332 -26.6615 -14.3125 0.813539 65.0962 -36.0811 61.6964 -39.647 80.6919 -124.568 175.85 -37.65 171.337 14.6281 64.4628 -9.36448 -0.965277 26.367 -3.60229 83.9292 74.0218 97.3826 -171.953 -64.5542 -165.963 -10.8119 57.34 7.73151 0.963543 26.3682 3.55537 
286.323 19.5434 57.4665 -1.26886 54.6263 -179.449 0.773163 5.58164 1.79888 1.22519 25.1286 3.35058 0.772815 31.7111 3.56734 4.06334 14.938 -4.41449 4.2599 -26.7447 -2.65458 -100.526 -10.0142 91.2236 -21.1458 60.9915 54.7759 16.744 -14.3027 -0.6796 -7.06768 -58.4433 -13.3962 90.8555 6.6027 -92.459 52.9521 72.3276 -74.7602 -27.3831 -14.6204 0.831723 65.6051 -35.4288 60.9317 -31.2903 79.2004 -137.412 175.352 -39.9723 170.168 16.4672 62.6033 -9.51109 -0.965277 26.367 -3.60229 91.4773 73.3229 88.5486 -171.569 -74.0665 -164.799 -10.4023 58.1252 8.75813 0.963543 26.3682 3.55537 
285.542 18.964 59.7192 -3.41568 53.6171 -177.344 0.476385 5.53358 1.54551 0.649882 25.0243 2.9728 0.249175 31.6093 3.16411 0.906016 12.3366 -3.52467 5.24825 -25.5103 -3.27505 -98.8302 -9.96131 91.1537 -21.3859 63.6288 58.568 17.7494 -15.0056 -0.713637 -11.8255 -59.7682 -18.1783 90.6089 7.01429 -92.4454 47.0289 73.2952 -68.1508 -27.4332 -15.1331 0.851617 65.1014 -35.8176 59.3155 -30.5206 77.7248 -142.902 174.83 -42.6634 169.212 17.6801 60.3608 -8.91621 -0.965277 26.367 -3.60229 97.2179 73.1503 80.8851 -172.093 -82.5287 -165.518 -9.21737 59.3267 8.90044 0.963543 26.3682 3.55537 
284.661 18.5728 62.0086 -4.51167 52.1694 -176.446 0.283238 5.52639 1.31847 0.289745 25.005 2.59788 -0.0601403 31.5923 2.76483 -0.929226 8.56246 -2.8749 5.22044 -23.7949 -3.45126 -98.4572 -9.11231 91.2806 -20.3793 65.84 58.5342 18.0582 -15.3809 -0.731001 -14.8607 -61.0238 -21.3029 90.4891 7.17378 -92.4343 37.9509 74.0328 -59.5101 -27.402 -16.0426 0.886222 64.8088 -35.7199 58.1258 -32.9941 76.609 -144.307 174.219 -46.1721 168.265 18.0195 56.2268 -7.14837 -0.965277 26.367 -3.60229 102.741 73.5292 72.9609 110.601 -89.2984 116.71 -7.12997 59.1912 8.5033 0.963543 26.3682 3.55537 
283.717 18.3118 64.4052 -5.10348 50.3488 -176.358 0.0963018 5.50279 1.09628 -0.057862 24.9546 2.22968 -0.357732 31.5437 2.37254 -1.85494 4.59034 -2.27524 4.39656 -22.1914 -3.18026 -98.2731 -8.27868 91.4106 -18.099 67.7629 57.4656 18.3418 -15.2012 -0.724075 -19.4099 -62.0728 -26.0659 90.363 7.45362 -92.4328 26.5944 74.4932 -47.7476 -27.0472 -16.3168 0.893602 64.043 -36.3283 56.6758 -35.6659 75.4847 -144.272 173.624 -49.8704 167.093 16.9752 52.536 -6.28173 -0.965277 26.367 -3.60229 107.66 74.5923 65.8452 20.4933 -84.1624 26.7395 -6.64803 57.8496 8.6186 0.963543 26.3682 3.55537 
282.761 18.0239 66.6069 -5.37356 48.763 -176.601 -0.0452279 5.5209 0.869403 -0.307908 24.9889 1.82952 -0.553734 31.5798 1.94679 -2.11469 1.32979 -1.94945 3.50612 -21.0219 -2.87697 -97.9596 -7.59327 91.5041 -15.8327 69.5048 56.6822 18.863 -15.1332 -0.722696 -24.7302 -62.6308 -31.5053 90.3789 7.84899 -92.4738 15.7413 74.2071 -36.0079 -27.0421 -16.512 0.901154 63.0645 -37.3026 54.8035 -37.4581 74.4419 -144.662 173.116 -52.9845 165.942 16.5879 50.142 -6.05113 -0.965277 26.367 -3.60229 112.552 75.5201 59.3386 17.4167 -80.1561 24.255 -6.6201 56.8497 9.46841 0.963543 26.3682 3.55537 
281.76 17.6769 68.78 -5.74392 47.2465 -176.823 -0.18492 5.52575 0.668154 -0.559724 24.9973 1.48147 -0.758491 31.5895 1.57638 -1.90159 -1.21632 -1.79263 2.61167 -20.3806 -2.56389 -98.0493 -6.90861 91.6232 -13.9363 70.6467 55.4198 20.0244 -15.3587 -0.735306 -28.4871 -63.2915 -35.1073 90.3246 7.99418 -92.4751 6.61308 73.4958 -26.1354 -27.3155 -16.8407 0.916503 62.1387 -38.3105 52.9166 -38.3259 73.6405 -145.983 172.658 -55.9318 165.085 16.137 48.5433 -5.88888 -0.965277 26.367 -3.60229 116.824 76.0596 54.1858 15.6834 -77.6196 22.6927 -7.32149 57.1493 9.89317 0.963543 26.3682 3.55537 
